<svg width="901" height="518" viewBox="0 0 901 518" fill="none" xmlns="http://www.w3.org/2000/svg">
<g clip-path="url(#clip0_4380_5179)">
<path fill-rule="evenodd" clip-rule="evenodd" d="M325.89 192.679C266.59 132.529 164.18 174.519 164.18 258.979C164.18 343.439 266.59 385.439 325.89 325.289L391.25 258.979L325.89 192.679ZM450.01 199.389L385.48 133.939C273.64 20.4794 80.5 99.6794 80.5 258.989C80.5 418.299 273.64 497.499 385.49 384.049L450.02 318.599L514.54 384.049C626.38 497.499 819.53 418.309 819.53 258.989C819.53 99.6694 626.39 20.4794 514.54 133.929L450.02 199.379L450.01 199.389ZM508.77 258.989L574.13 325.299C633.43 385.449 735.84 343.459 735.84 258.989C735.84 174.519 633.43 132.529 574.13 192.689L508.77 258.989Z" fill="#131313" stroke="#333333" stroke-width="6" stroke-dasharray="2 2"/>
<path d="M526 338.039L356.75 161.989C346.73 151.559 335.83 143.159 324.39 136.619" stroke="#0A8E46" stroke-width="13"/>
<path d="M710.04 382.209C685.99 395.049 658.36 400.999 630.87 398.609" stroke="#0A8E46" stroke-width="13"/>
<path d="M771.57 201.24C779.21 218.39 783.56 237.78 783.56 258.99C783.56 267.78 782.82 276.27 781.4 284.41" stroke="#0A8E46" stroke-width="13"/>
<path d="M625.92 119.899C651.65 116.699 677.69 120.939 701.01 131.349" stroke="#0A8E46" stroke-width="13"/>
<path d="M378.98 332.869L523.45 182.619" stroke="#0A8E46" stroke-width="13"/>
<path d="M236.62 397.609C265.6 401.899 296.12 397.259 323.59 381.809" stroke="#0A8E46" stroke-width="13"/>
<path d="M117.75 278.799C121.98 310.439 136.26 337.199 156.44 357.389" stroke="#0A8E46" stroke-width="13"/>
<path d="M244.56 119.42C212.82 122.3 182.41 135.93 159.18 157.93" stroke="#0A8E46" stroke-width="13"/>
<path d="M315.16 144.94L307.4 141C303.71 139.12 301.98 135.87 303.9 132.09C305.7 128.54 309.5 127.82 313.28 129.76L317.12 131.71L320.14 125.77L323.91 127.68L315.16 144.94ZM312.59 132.76C310.64 131.77 308.75 131.96 307.78 133.88C306.78 135.86 307.77 137.47 309.7 138.46L312.88 140.07L315.76 134.37L312.58 132.76H312.59Z" fill="white"/>
<path d="M299.84 137.4L295.85 135.99L301.16 120.87L292.17 117.7L293.27 114.57L306.24 119.13L299.83 137.4H299.84Z" fill="white"/>
<path d="M290.43 113.609L279.61 131.229L274.49 130.229L270.83 109.799L275.22 110.649L275.92 115.429L283.75 116.959L286.17 112.779L290.43 113.609ZM276.45 118.859L276.95 122.249C277.21 123.929 277.42 125.629 277.63 127.339L277.82 127.379C278.64 125.849 279.51 124.329 280.39 122.819L282.04 119.959L276.46 118.879L276.45 118.859Z" fill="white"/>
<path d="M250 117.509L250.32 108.869L254.88 109.049L259.41 117.029C260.55 119.009 261.67 120.999 262.82 123.239L262.98 123.189C263.03 121.119 263.14 119.049 263.21 116.979L263.49 109.379L267.57 109.539L266.83 128.889L262.17 128.709L257.25 120.219C256.29 118.549 255.36 116.899 254.36 114.969H254.17C254.14 117.149 254.08 118.999 254.01 120.849L253.73 128.389L249.59 128.229L250 117.519" fill="white"/>
<path d="M164.48 167.9L159.27 173.59C155.51 177.68 150.35 178.87 145.45 174.36C140.33 169.65 141.3 164.57 145.03 160.51L150.24 154.82L164.48 167.91V167.9ZM148.39 171.12C151.77 174.22 154.72 173.62 156.92 171.23L159.18 168.77L149.82 160.17L147.56 162.63C145.32 165.08 145.14 168.14 148.38 171.13L148.39 171.12Z" fill="white"/>
<path d="M151.9 181.999L143.58 194.169L140.85 192.289L146.79 183.609L143.13 181.089L137.8 188.879L135.14 187.049L140.47 179.259L136.32 176.419L130.4 185.069L127.67 183.189L135.97 171.039L151.93 181.979H151.92L151.9 181.999Z" fill="white"/>
<path d="M143.67 193.76L141.67 197.8L133.27 196.57C130.75 196.22 128.23 195.87 125.72 195.45L125.64 195.63L131.13 201.05L137.15 206.97L135.2 210.91L120.98 196.04L123.22 191.5L143.67 193.78V193.76Z" fill="white"/>
<path d="M135.18 211.41L130.54 225.41L127.39 224.37L130.69 214.39L126.47 212.98L123.51 221.93L120.44 220.91L123.4 211.96L118.63 210.38L115.33 220.33L112.18 219.29L116.8 205.32L135.16 211.41H135.17H135.18Z" fill="white"/>
<path d="M130.29 226.75L129.47 230.89L113.76 227.78L111.91 237.14L108.66 236.49L111.34 222.99L130.3 226.75H130.29Z" fill="white"/>
<path d="M118.01 238.49C124.26 238.94 127.79 243.08 127.37 249.02C126.95 254.95 122.87 258.57 116.62 258.12C110.37 257.67 106.82 253.56 107.24 247.57C107.67 241.61 111.77 238.03 118.03 238.47H118.02L118.01 238.49ZM110.56 247.82C110.32 251.12 112.43 253.41 116.92 253.74C121.33 254.05 123.79 252.08 124.03 248.78C124.26 245.48 122.11 243.17 117.7 242.86C113.21 242.53 110.8 244.5 110.56 247.81V247.82Z" fill="white"/>
<path d="M126.38 260.129L126.93 268.819C127.2 272.959 125.27 276.109 121.05 276.379C117.07 276.639 114.55 273.709 114.28 269.469L114.01 265.159L107.37 265.589L107.1 261.369L126.4 260.139H126.39L126.38 260.129ZM117.2 268.519C117.34 270.699 118.46 272.229 120.61 272.089C122.81 271.959 123.71 270.289 123.57 268.109L123.34 264.549L116.97 264.959L117.2 268.519Z" fill="white"/>
<path d="M166.27 354.42L174.18 360.93C176.83 363.11 177.47 365.6 175.72 367.71C174.08 369.7 171.6 369.86 169.41 368.21L169.29 368.36C171.62 370.46 172.03 373.19 170.2 375.44C167.91 378.22 164.72 378.2 161.29 375.37L153.99 369.36L166.27 354.41H166.28L166.27 354.42ZM163.1 372.59C164.57 373.81 165.97 373.77 166.98 372.52C167.97 371.33 167.7 369.99 166.22 368.78L162.46 365.69L159.34 369.49L163.1 372.58V372.59ZM167.82 366.23C169.1 367.29 170.62 367.14 171.55 366C172.42 364.96 172.2 363.6 171.05 362.66L167.43 359.67L164.37 363.38L167.83 366.22H167.82V366.23Z" fill="white"/>
<path d="M179.56 365.27L183.17 367.48L176.98 377.62C175.48 380.07 175.76 382.16 178.27 383.69C180.77 385.22 182.77 384.6 184.31 382.07L190.49 371.94L194.1 374.15L187.83 384.44C185.06 388.98 180.79 389.21 176.51 386.59C172.41 384.08 170.55 380.09 173.31 375.55L179.58 365.26H179.57L179.56 365.27Z" fill="white"/>
<path d="M199.88 376.738L191.46 394.168L187.66 392.328L196.08 374.898L199.88 376.738Z" fill="white"/>
<path d="M202.1 377.889L206.05 379.409L200.29 394.369L209.19 397.809L208 400.909L195.17 395.949L202.12 377.889H202.11H202.1Z" fill="white"/>
<path d="M215.91 383.209L223.4 385.039C228.8 386.349 232.32 390.319 230.76 396.789C229.11 403.559 224.2 405.159 218.83 403.859L211.34 402.029L215.91 383.209ZM226.51 395.759C227.59 391.289 225.64 388.999 222.48 388.229L219.24 387.439L216.24 399.799L219.48 400.589C222.7 401.379 225.47 400.049 226.51 395.759Z" fill="white"/>
<path d="M320.34 371.229L333.79 361.639L335.71 364.339L330.73 367.889L340.02 380.959L336.56 383.419L327.27 370.369L322.25 373.949L320.33 371.249L320.34 371.229Z" fill="white"/>
<path d="M334.48 360.95L345.34 351L347.59 353.45L339.86 360.55L342.86 363.83L349.8 357.45L351.98 359.83L345.04 366.21L348.43 369.92L356.15 362.84L358.39 365.29L347.56 375.23L334.5 360.96H334.49L334.48 360.95Z" fill="white"/>
<path d="M355.13 359.36L358.04 356.41C359.69 357.8 361.72 357.44 363.69 355.43C365.53 353.6 365.95 351.95 364.77 350.79C363.7 349.75 362.17 350.56 360.36 351.77L358.86 352.79C356.09 354.67 352.86 356.53 349.8 353.52C347.42 351.16 347.96 347.43 351.56 343.77C355.05 340.22 358.97 339.79 362.08 342.73L359.21 345.64C357.6 344.16 355.61 344.42 353.9 346.16C352.21 347.88 351.82 349.5 352.86 350.53C354 351.65 355.59 350.79 357.4 349.58L359.09 348.46C361.81 346.64 364.82 344.87 367.62 347.63C370.35 350.32 369.7 354.1 365.97 357.89C362.08 361.84 358.03 362.41 355.1 359.39L355.13 359.36Z" fill="white"/>
<path d="M357.9 337.919L369.49 326.139L371.86 328.469L367.57 332.829L378.98 344.079L375.99 347.109L364.58 335.839L360.25 340.229L357.88 337.899H357.89L357.9 337.919Z" fill="white"/>
<path d="M521.45 172.53L527.81 166.07C530.29 163.55 532.88 163.25 534.84 165.2C536.64 166.97 536.61 169.49 535.14 171.21L535.26 171.33C536.95 169.83 538.3 169.77 540.28 171.15L544.57 174.14L541.8 176.96L538.49 174.58C536.95 173.46 536.25 173.61 534.7 175.16L532.2 177.7L536.7 182.14L534 184.89L521.45 172.51H521.46L521.45 172.53ZM533.05 172.95C534.32 171.66 534.35 170.03 533.09 168.78C531.93 167.63 530.41 167.74 529.1 169.06L526.29 171.92L530.22 175.81L533.03 172.95H533.04H533.05Z" fill="white"/>
<path d="M533.47 160.09L543.11 150.76L545.21 152.94L538.34 159.59L541.15 162.5L547.32 156.53L549.36 158.66L543.19 164.63L546.37 167.93L553.23 161.3L555.33 163.48L545.7 172.8L533.46 160.11H533.47V160.09Z" fill="white"/>
<path d="M545.33 148.61L548.29 146.16L557.58 157.43L564.27 151.89L566.19 154.22L556.54 162.21L545.33 148.62V148.61Z" fill="white"/>
<path d="M557.56 138.759L568.76 131.369L570.42 133.889L562.44 139.159L564.67 142.549L571.84 137.819L573.46 140.279L566.29 145.009L568.81 148.839L576.77 143.589L578.43 146.109L567.26 153.489L557.57 138.769H557.56V138.759Z" fill="white"/>
<path d="M578.41 145.95L576.56 127.21L580.82 125.1L594.72 137.9L591.07 139.7L587.92 136.63L581.4 139.85L581.95 144.21L578.41 145.96V145.95ZM585.66 134.42L583.43 132.24C582.31 131.17 581.23 130.05 580.14 128.92L579.98 129C580.22 130.57 580.44 132.14 580.63 133.74L581.01 136.73L585.66 134.43V134.42Z" fill="white"/>
<path d="M592.36 132.779L595.93 131.549C596.71 133.359 598.51 133.879 600.93 133.049C603.17 132.309 604.17 131.129 603.69 129.709C603.24 128.419 601.66 128.459 599.7 128.709L598.08 128.929C595.05 129.339 591.67 129.539 590.4 125.859C589.41 122.979 591.36 120.149 595.78 118.629C600.07 117.149 603.43 118.389 604.77 122.059L601.26 123.279C600.54 121.429 598.81 120.819 596.73 121.529C594.66 122.249 593.67 123.409 594.11 124.669C594.58 126.049 596.23 125.979 598.19 125.739L600.03 125.509C602.99 125.129 606.16 124.909 607.32 128.299C608.46 131.599 606.39 134.419 601.83 135.999C597.06 137.649 593.53 136.459 592.36 132.819V132.789V132.779Z" fill="white"/>
<path d="M606.65 115.589L619.77 112.799L620.39 115.749L611.05 117.739L611.89 121.709L620.27 119.919L620.88 122.799L612.5 124.589L613.45 129.069L622.77 127.079L623.39 130.029L610.3 132.819L606.64 115.579H606.67L606.65 115.589Z" fill="white"/>
<path d="M709.37 124.59L715.47 128.06C719.86 130.55 721.97 134.91 718.99 140.19C715.87 145.71 711.17 145.88 706.79 143.4L700.69 139.93L709.37 124.59ZM715.53 138.23C717.58 134.59 716.46 132.1 713.88 130.63L711.23 129.13L705.52 139.2L708.17 140.7C710.79 142.19 713.55 141.73 715.53 138.22V138.23Z" fill="white"/>
<path d="M726.36 134.629L737.15 142.609L735.35 145.049L727.66 139.359L725.25 142.619L732.15 147.719L730.41 150.089L723.51 144.989L720.79 148.669L728.46 154.339L726.66 156.779L715.9 148.819L726.35 134.629H726.36Z" fill="white"/>
<path d="M739.92 144.93L745.71 150.35C748.47 152.94 749.14 156.23 746.52 159.04C744.05 161.69 740.54 161.34 737.72 158.69L734.85 156.01L730.71 160.44L727.9 157.81L739.93 144.93H739.92ZM739.07 156.24C740.52 157.59 742.22 157.92 743.56 156.48C744.94 155 744.49 153.35 743.03 151.98L740.66 149.76L736.68 154.01L739.05 156.23H739.06L739.07 156.24Z" fill="white"/>
<path d="M752.79 157.389L755.29 160.329L744.18 169.809L749.81 176.429L747.51 178.389L739.38 168.829L752.79 157.399V157.389Z" fill="white"/>
<path d="M754.54 172.85C759.29 169.68 764.13 170.68 767.14 175.21C770.14 179.72 769.22 184.59 764.48 187.76C759.73 190.93 754.88 189.97 751.85 185.42C748.83 180.9 749.79 176.02 754.54 172.86V172.85ZM754.39 183.73C756.07 186.25 758.85 186.71 762.26 184.43C765.6 182.19 766.28 179.39 764.61 176.89C762.93 174.37 760.11 173.94 756.75 176.17C753.34 178.44 752.69 181.21 754.37 183.73H754.38H754.39Z" fill="white"/>
<path d="M773.89 187.099L772.37 189.519C771.02 191.579 770.26 192.729 769.33 194.019L769.41 194.179C770.99 194.189 772.4 194.249 774.95 194.399L777.64 194.589L779.53 198.369L767.14 197.309L760.87 200.459L759.13 196.989L765.42 193.819L771.91 183.189L773.87 187.079H773.88L773.89 187.099Z" fill="white"/>
<path d="M780.08 288.089C785.6 289.579 788.02 293.899 786.6 299.149C785.18 304.379 780.91 306.899 775.39 305.409C769.87 303.919 767.41 299.609 768.85 294.349C770.27 289.099 774.57 286.609 780.09 288.109L780.08 288.089ZM771.78 295.149C771 298.079 772.47 300.489 776.43 301.549C780.31 302.609 782.87 301.259 783.65 298.369C784.43 295.439 782.91 293.019 779.03 291.979C775.07 290.909 772.58 292.239 771.78 295.159V295.149Z" fill="white"/>
<path d="M782.49 311.319L779.41 318.629C777.95 322.109 775.1 323.879 771.55 322.389C768.21 320.979 767.33 317.569 768.83 313.999L770.36 310.369L764.78 308.009L766.28 304.459L782.51 311.309H782.5L782.49 311.319ZM771.59 314.439C770.82 316.279 771.1 317.989 772.92 318.749C774.77 319.539 776.18 318.529 776.95 316.709L778.21 313.719L772.86 311.459L771.6 314.449L771.59 314.439Z" fill="white"/>
<path d="M775.19 327.869L768.54 339.509L765.92 338.009L770.67 329.709L767.15 327.689L762.89 335.139L760.33 333.679L764.59 326.229L760.61 323.959L755.88 332.249L753.26 330.749L759.9 319.119L775.18 327.879H775.19V327.869Z" fill="white"/>
<path d="M766.53 342.58L761.11 349.85C759 352.68 756.47 353.33 754.25 351.66C752.23 350.16 751.91 347.64 753.14 345.74L753 345.63C751.53 347.35 750.19 347.58 748.05 346.48L743.4 344.1L745.77 340.93L749.37 342.84C751.05 343.75 751.74 343.5 753.03 341.76L755.17 338.89L750.11 335.11L752.41 332.02L766.51 342.57H766.52L766.53 342.58ZM754.98 343.74C753.9 345.19 754.1 346.83 755.51 347.88C756.82 348.85 758.31 348.56 759.42 347.07L761.81 343.86L757.38 340.54L754.99 343.75L754.98 343.74Z" fill="white"/>
<path d="M743.21 344.439L751.12 361.529L747.78 364.929L730.45 357.429L733.3 354.519L737.28 356.389L742.38 351.209L740.43 347.269L743.2 344.449H743.21V344.439ZM740.15 357.729L742.98 359.059C744.39 359.709 745.78 360.409 747.17 361.099L747.29 360.979C746.55 359.579 745.83 358.159 745.11 356.729L743.77 354.029L740.13 357.729H740.14H740.15Z" fill="white"/>
<path d="M743.69 369.059L732.09 378.649L730.17 376.319L734.46 372.769L725.17 361.499L728.16 359.039L737.45 370.299L741.78 366.729L743.7 369.059H743.69Z" fill="white"/>
<path d="M729.51 380.459L718.29 387.799L716.64 385.269L724.65 380.039L722.43 376.639L715.25 381.339L713.64 378.879L720.82 374.179L718.32 370.329L710.34 375.539L708.69 373.009L719.89 365.689L729.52 380.449L729.51 380.459Z" fill="white"/>
<path d="M628.22 399.018C627.19 404.638 623.11 407.428 617.75 406.448C612.44 405.468 609.57 401.408 610.6 395.788C611.63 390.168 615.7 387.348 621.07 388.328C626.41 389.308 629.25 393.378 628.22 399.008V399.018ZM620.51 391.328C617.54 390.788 615.26 392.468 614.53 396.498C613.8 400.468 615.35 402.898 618.3 403.428C621.28 403.968 623.56 402.238 624.28 398.278C625.02 394.248 623.48 391.858 620.52 391.318H620.51V391.328Z" fill="white"/>
<path d="M605.27 403.34L596.4 400.43C593.44 399.45 592.07 397.55 592.86 395.18C593.59 392.96 595.66 391.98 598.05 392.67L598.1 392.51C595.44 391.51 594.18 389.31 595 386.8C596.01 383.69 598.75 382.64 602.59 383.92L610.76 386.61L605.27 403.36V403.34ZM600.05 393.84C598.62 393.37 597.37 394 596.97 395.26C596.59 396.42 597.21 397.51 598.5 397.94L602.56 399.28L603.93 395.12L600.06 393.85L600.05 393.84ZM601.97 386.88C600.32 386.34 599.16 386.83 598.7 388.22C598.27 389.56 598.93 390.6 600.58 391.14L604.79 392.52L606.18 388.25L601.97 386.87V386.88Z" fill="white"/>
<path d="M593.69 386.92L590.28 385.3C590.98 383.46 590.06 381.82 587.75 380.72C585.63 379.68 584.09 379.81 583.44 381.18C582.86 382.41 584.01 383.5 585.59 384.69L586.9 385.68C589.35 387.51 591.9 389.74 590.23 393.26C588.92 396.01 585.55 396.66 581.32 394.66C577.24 392.71 575.68 389.46 577.29 385.9L580.66 387.5C579.88 389.33 580.69 390.97 582.67 391.93C584.64 392.88 586.16 392.73 586.74 391.52C587.36 390.21 586.14 389.08 584.56 387.89L583.09 386.77C580.71 384.97 578.3 382.9 579.83 379.66C581.33 376.51 584.78 375.94 589.13 378.02C593.7 380.2 595.38 383.5 593.67 386.93H593.68L593.69 386.92Z" fill="white"/>
<path d="M571.46 389.17L560.13 381.98L561.74 379.42L569.81 384.55L571.97 381.12L564.72 376.52L566.3 374.03L573.55 378.63L576 374.76L567.94 369.66L569.56 367.1L580.86 374.28L571.44 389.17H571.45H571.46Z" fill="white"/>
<path d="M557.2 379.848L550.18 374.118C547.45 371.898 546.89 369.338 548.65 367.188C550.23 365.238 552.75 365.008 554.6 366.318L554.71 366.188C553.05 364.648 552.87 363.308 554.06 361.208L556.63 356.648L559.7 359.138L557.65 362.658C556.68 364.298 556.89 364.988 558.58 366.368L561.35 368.628L565.34 363.728L568.33 366.168L557.22 379.838H557.21L557.2 379.848ZM556.51 368.258C555.1 367.108 553.47 367.238 552.36 368.608C551.33 369.878 551.58 371.368 553.01 372.548L556.11 375.078L559.6 370.788L556.5 368.258H556.51Z" fill="white"/>
<path d="M544.38 369.338L541.51 366.398L545.11 359.548C546.16 357.488 547.25 355.428 548.35 353.388L548.23 353.268L541.93 356.358L535.03 359.748L532.25 356.878L549.31 349.148L552.53 352.448L544.39 369.348H544.38V369.338Z" fill="white"/>
<path d="M531.22 355.489L522.13 345.619L524.35 343.569L530.83 350.609L533.81 347.859L528 341.549L530.16 339.549L535.98 345.859L539.35 342.759L532.89 335.749L535.11 333.709L544.18 343.569L531.24 355.509L531.22 355.489Z" fill="white"/>
<path d="M236.22 264.29C241.63 264.29 244.6 261.44 244.6 255.52C244.6 249.6 241.59 246.75 236.22 246.75H231.52V264.29H236.22ZM228.82 266.73V244.33H236.21C243.09 244.33 247.35 248.2 247.35 255.53C247.35 262.86 243.03 266.73 236.21 266.73H228.82ZM251.45 266.73V244.33H267.16V246.76H254.14V253.93H265.85V256.36H254.14V264.3H267V266.73H251.45ZM277.39 266.73L268.88 244.33H271.7L275.41 254.35C276.56 257.45 277.75 260.59 278.9 263.73H279.09C280.31 260.59 281.49 257.46 282.67 254.29L286.45 244.34H289.27L280.57 266.74H277.4L277.39 266.73Z" fill="white"/>
<path d="M602.2 267.239C595.86 267.239 591.26 262.659 591.26 255.429C591.26 248.199 595.87 243.809 602.2 243.809C608.53 243.809 613.14 248.289 613.14 255.429C613.14 262.569 608.53 267.239 602.2 267.239ZM594 255.429C594 261.129 597.49 264.739 602.19 264.739C606.89 264.739 610.38 261.119 610.38 255.429C610.38 249.739 606.89 246.309 602.19 246.309C597.49 246.309 594 249.829 594 255.429ZM617.24 266.729V244.329H625.94C630.23 244.329 633.78 245.899 633.78 251.179C633.78 255.819 630.23 258.029 625.94 258.029H619.92V266.729H617.23H617.24ZM619.93 255.589H625.47C628.57 255.589 631.07 254.569 631.07 251.169C631.07 247.769 628.57 246.749 625.47 246.749H619.93V255.579V255.589ZM645.79 267.239C639.9 267.239 636.09 264.229 636.09 259.619L638.87 259.649C638.87 262.749 641.59 264.739 645.78 264.739C649.97 264.739 652.15 263.299 652.15 260.679C652.15 258.309 649.85 257.449 646.97 256.869L644.47 256.359C640.66 255.589 636.82 254.439 636.82 249.859C636.82 246.179 640.21 243.879 645.59 243.839C650.87 243.809 654.39 246.779 654.39 251.519H651.61C651.61 248.319 649.18 246.339 645.59 246.339C642 246.339 639.61 247.749 639.61 249.959C639.61 252.359 642.04 253.189 644.95 253.799L647.38 254.309C651.16 255.109 654.93 256.229 654.93 260.549C654.93 264.649 651.35 267.239 645.78 267.239H645.79Z" fill="white"/>
<path fill-rule="evenodd" clip-rule="evenodd" d="M640.08 517.48C571.51 517.48 506.69 490.04 457.57 440.21L450.02 432.55L442.47 440.21C393.35 490.04 328.53 517.48 259.96 517.48C191.39 517.48 129.3 491.8 81.33 447.03C29.2 398.39 0.5 331.61 0.5 258.99C0.5 186.37 29.2 119.58 81.31 70.95C129.28 26.18 194.39 0.5 259.95 0.5C325.51 0.5 393.34 27.94 442.46 77.77L450.01 85.43L457.56 77.77C506.69 27.94 571.51 0.5 640.08 0.5C708.65 0.5 770.74 26.18 818.71 70.95C870.82 119.58 899.52 186.36 899.52 258.98C899.52 331.6 870.82 398.39 818.71 447.02C770.74 491.79 705.63 517.47 640.07 517.47L640.08 517.48Z" stroke="#00DF66" stroke-miterlimit="10" stroke-dasharray="2 2"/>
<g opacity="0.7">
<path d="M140.412 81.639L136.078 74.6459L138.532 73.125L142.807 80.0219C143.841 81.6899 145.197 82.1591 146.897 81.1054C148.597 80.0516 148.833 78.6403 147.769 76.9242L143.504 70.0433L145.958 68.5224L150.293 75.5155C152.201 78.595 151.023 81.2789 148.12 83.0782C145.329 84.8079 142.321 84.7186 140.412 81.639Z" fill="#D9D9D9"/>
<path d="M159.69 76.3695C156.349 78.1642 153.6 77.7127 152.293 75.159L154.787 73.8198C155.583 75.0628 156.981 75.233 158.677 74.3223C160.248 73.4996 160.852 72.5111 160.317 71.5136C159.835 70.6159 158.667 70.8358 157.245 71.2573L156.065 71.6127C153.872 72.2762 151.389 72.8384 150.006 70.2617C148.925 68.2502 150.031 65.9215 153.123 64.2608C156.115 62.6537 158.764 63.1587 160.198 65.7087L157.737 67.0301C156.982 65.7436 155.633 65.5045 154.17 66.2902C152.723 67.067 152.136 68.0466 152.609 68.9277C153.127 69.8919 154.344 69.6452 155.767 69.2237L157.098 68.8302C159.24 68.1934 161.563 67.6527 162.831 70.0133C164.072 72.3241 162.882 74.6552 159.69 76.3695Z" fill="#D9D9D9"/>
<path d="M166.27 72.6125L160.7 60.6353L169.82 56.3942L170.774 58.4475L164.273 61.4711L165.554 64.2259L171.388 61.5126L172.319 63.5145L166.485 66.2278L167.933 69.3419L174.418 66.3262L175.372 68.3795L166.27 72.6125Z" fill="#D9D9D9"/>
<path d="M186.37 64.3217C182.816 65.6475 180.154 64.8281 179.205 62.121L181.857 61.1316C182.477 62.471 183.839 62.8289 185.643 62.1561C187.311 61.5537 188.044 60.6561 187.648 59.5953C187.292 58.6406 186.106 58.7004 184.639 58.9255L183.421 59.1178C181.159 59.4784 178.623 59.6994 177.601 56.9591C176.803 54.8199 178.213 52.6622 181.502 51.4354C184.684 50.2481 187.24 51.1071 188.316 53.8276L185.699 54.8038C185.125 53.4269 183.82 53.0073 182.265 53.5878C180.726 54.1617 180.012 55.0527 180.361 55.9897C180.744 57.0152 181.983 56.9355 183.45 56.7105L184.822 56.5008C187.031 56.1599 189.405 55.9386 190.342 58.4491C191.259 60.9066 189.764 63.0553 186.37 64.3217Z" fill="#D9D9D9"/>
<path d="M193.368 61.498L189.469 48.8776L199.079 45.9085L199.747 48.072L192.896 50.1888L193.793 53.0915L199.941 51.1919L200.592 53.3013L194.445 55.2009L195.458 58.4822L202.291 56.3709L202.96 58.5344L193.368 61.498Z" fill="#D9D9D9"/>
<path d="M204.822 58.0156L201.664 45.1896L208.261 43.5657C210.826 42.9342 212.603 43.7598 213.099 45.7754C213.551 47.6077 212.547 49.215 210.925 49.7309L210.957 49.8592C212.633 49.5632 213.514 50.0652 214.231 51.7154L215.797 55.3137L212.921 56.0219L211.741 53.203C211.201 51.8784 210.689 51.6935 209.095 52.0859L206.493 52.7264L207.625 57.3255L204.822 58.0156ZM206.002 50.7292L208.915 50.012C210.234 49.6873 210.892 48.6507 210.577 47.3681C210.283 46.1771 209.278 45.6472 207.923 45.981L205.009 46.6982L206.002 50.7292Z" fill="#D9D9D9"/>
<path d="M220.861 54.3605L213.748 42.2346L216.773 41.6804L219.529 46.7773C220.363 48.2935 221.201 49.8283 222.001 51.3699L222.131 51.3461L222.845 46.1316L223.622 40.4259L226.573 39.8853L224.257 53.7383L220.861 54.3605Z" fill="#D9D9D9"/>
<path d="M228.565 39.6795L231.426 39.2862L233.225 52.372L230.365 52.7653L228.565 39.6795Z" fill="#D9D9D9"/>
<path d="M241.74 51.7425C237.718 52.1042 234.964 49.7184 234.579 45.4333C234.192 41.1295 236.48 38.3469 240.502 37.9852C243.96 37.6741 246.364 39.3335 247.098 42.2232L244.128 42.4903C243.597 41.0034 242.398 40.1071 240.707 40.2592C238.527 40.4554 237.307 42.2702 237.567 45.1645C237.827 48.0588 239.374 49.6628 241.629 49.4599C243.452 49.2959 244.504 47.9319 244.564 46.0698L247.496 45.8061C247.506 49.0828 245.423 51.4111 241.74 51.7425Z" fill="#D9D9D9"/>
<path d="M249.813 50.825L249.462 37.6206L259.517 37.3538L259.577 39.6174L252.409 39.8076L252.489 42.8446L258.922 42.6739L258.98 44.881L252.548 45.0516L252.639 48.4848L259.788 48.2951L259.848 50.5587L249.813 50.825Z" fill="#D9D9D9"/>
<path d="M266.291 50.6787L266.978 37.4876L269.861 37.6377L269.292 48.5675L275.794 48.9059L275.676 51.1673L266.291 50.6787Z" fill="#D9D9D9"/>
<path d="M277.388 51.3143L278.823 38.1836L288.822 39.2768L288.575 41.5278L281.447 40.7484L281.117 43.7684L287.514 44.4678L287.274 46.6625L280.877 45.9631L280.504 49.3771L287.613 50.1545L287.367 52.4055L277.388 51.3143Z" fill="#D9D9D9"/>
<path d="M292.904 53.305L290.413 39.4693L293.444 39.9933L294.272 45.7282C294.531 47.4392 294.787 49.1687 295.006 50.8918L295.137 50.9143L297.606 46.2666L300.305 41.1797L303.262 41.6909L296.307 53.8933L292.904 53.305Z" fill="#D9D9D9"/>
<path d="M302.343 55.0374L305.404 42.188L315.188 44.5188L314.663 46.7216L307.688 45.0598L306.984 48.0152L313.244 49.5064L312.732 51.6541L306.472 50.1629L305.676 53.5037L312.634 55.1611L312.109 57.3639L302.343 55.0374Z" fill="#D9D9D9"/>
<path d="M313.956 57.8885L317.745 45.2347L320.511 46.0629L317.372 56.5475L323.608 58.415L322.959 60.5842L313.956 57.8885Z" fill="#D9D9D9"/>
<path d="M334.433 65.1027C330.643 63.6016 329.153 60.1901 330.731 56.2077C332.308 52.2252 335.723 50.7772 339.513 52.2783C343.285 53.7724 344.799 57.1733 343.222 61.1557C341.644 65.1382 338.24 66.6107 334.433 65.1027ZM333.52 57.3126C332.387 60.1723 333.168 62.146 335.274 62.9799C337.379 63.8138 339.3 62.9104 340.432 60.0508C341.544 57.2438 340.76 55.228 338.672 54.401C336.567 53.5671 334.632 54.5056 333.52 57.3126Z" fill="#D9D9D9"/>
<path d="M342.503 68.1146L348.19 56.1923L354.509 59.2062C356.621 60.2136 357.451 61.7596 356.647 63.4458C355.891 65.0297 354.264 65.5495 352.545 64.8134L352.488 64.9326C354.372 65.9358 355.105 67.6862 354.252 69.4745C353.196 71.6886 351.07 72.2008 348.328 70.8929L342.503 68.1146ZM346.084 67.3137L349.082 68.7435C350.257 69.304 351.172 69.0507 351.643 68.0628C352.098 67.109 351.703 66.2724 350.528 65.7118L347.53 64.282L346.084 67.3137ZM348.407 62.4426L351.167 63.7587C352.188 64.2461 353.17 63.8987 353.6 62.996C353.998 62.1614 353.636 61.2988 352.716 60.8601L349.821 59.4791L348.407 62.4426Z" fill="#D9D9D9"/>
<path d="M355.858 69.7171L356.214 69.0729L358.675 70.4326L358.201 71.2915C357.48 72.5963 357.755 73.5029 358.911 74.1417C360.1 74.7987 361.03 74.364 361.788 72.9931L366.059 65.2632L368.602 66.6685L364.404 74.2662C362.643 77.454 360.103 77.4086 357.857 76.1676C355.693 74.9722 354.07 72.9544 355.858 69.7171Z" fill="#D9D9D9"/>
<path d="M364.195 79.3932L371.224 68.2097L379.74 73.5618L378.535 75.4789L372.464 71.6632L370.847 74.2354L376.295 77.6595L375.12 79.5288L369.672 76.1046L367.845 79.0124L373.9 82.8181L372.695 84.7352L364.195 79.3932Z" fill="#D9D9D9"/>
<path d="M378.92 89.4923C375.64 87.1365 375.117 83.531 377.627 80.0367C380.148 76.527 383.698 75.9179 386.978 78.2738C389.798 80.2994 390.532 83.1267 389.198 85.7927L386.776 84.0534C387.346 82.5808 387.026 81.119 385.646 80.1282C383.868 78.8512 381.759 79.4269 380.063 81.7871C378.368 84.1473 378.489 86.3719 380.329 87.6929C381.815 88.7608 383.503 88.4165 384.766 87.0467L387.157 88.764C385.022 91.2503 381.924 91.6501 378.92 89.4923Z" fill="#D9D9D9"/>
<path d="M391.231 84.5499L392.656 82.7901L401.426 89.8916L400.001 91.6513L396.76 89.0269L389.872 97.5324L387.614 95.7037L394.501 87.1981L391.231 84.5499Z" fill="#D9D9D9"/>
<path d="M403.063 91.3837L405.231 93.2904L396.508 103.209L394.34 101.303L403.063 91.3837Z" fill="#D9D9D9"/>
<path d="M401.128 107.449L406.798 94.5847L409.018 96.7136L406.498 101.931C405.757 103.495 405.002 105.072 404.221 106.623L404.316 106.715L408.962 104.242L414.043 101.533L416.209 103.61L403.621 109.839L401.128 107.449Z" fill="#D9D9D9"/>
<path d="M408.048 114.275L417.455 105.002L424.516 112.165L422.903 113.754L417.869 108.648L415.705 110.781L420.223 115.363L418.651 116.913L414.133 112.33L411.687 114.741L416.708 119.835L415.096 121.424L408.048 114.275Z" fill="#D9D9D9"/>
<path d="M492.186 113.992L482.916 104.582L490.081 97.5234L491.67 99.1366L486.562 104.169L488.694 106.333L493.278 101.817L494.827 103.39L490.243 107.906L492.653 110.352L497.748 105.334L499.337 106.947L492.186 113.992Z" fill="#D9D9D9"/>
<path d="M500.779 105.64L492.02 95.7527L494.181 93.8381L501.438 102.03L506.311 97.7129L507.813 99.4078L500.779 105.64Z" fill="#D9D9D9"/>
<path d="M500.815 88.106L503.048 86.2758L511.421 96.4916L509.189 98.3218L500.815 88.106Z" fill="#D9D9D9"/>
<path d="M513.297 94.8419L505.479 84.1951L508.855 81.7156L513.548 84.9184C514.658 85.6957 515.756 86.4579 516.85 87.2465L516.956 87.1683C516.527 85.9147 516.125 84.6651 515.726 83.3892L514.057 77.896L517.449 75.4054L525.267 86.0522L522.986 87.7275L519.523 83.0125C518.663 81.8413 517.788 80.6813 516.932 79.4838L516.856 79.5396C517.351 80.9788 517.82 82.414 518.284 83.8755L520.202 89.7714L518.347 91.134L513.269 87.5348C512.055 86.6469 510.8 85.7661 509.601 84.8671L509.51 84.9341C510.396 86.1093 511.23 87.2764 512.09 88.4476L515.563 93.1778L513.297 94.8419Z" fill="#D9D9D9"/>
<path d="M520.182 73.7105L522.598 72.13L529.829 83.1841L527.412 84.7646L520.182 73.7105Z" fill="#D9D9D9"/>
<path d="M529.533 72.2149C530.267 73.4251 530.969 74.6545 531.686 75.8743L534.318 80.3469L531.911 81.763L525.213 70.3783L527.961 68.7611L533.922 71.8223C535.088 72.4278 536.229 73.0266 537.523 73.7757L537.628 73.6924C536.849 72.443 536.208 71.3533 535.566 70.2636L532.954 65.8235L535.394 64.3882L542.092 75.773L539.408 77.3518L533.864 74.4399C532.478 73.7225 531.109 72.9955 529.612 72.1249L529.533 72.2149Z" fill="#D9D9D9"/>
<path d="M545.821 73.819L543.172 75.145L541.697 61.1117L544.887 59.5154L555.372 69.0384L552.638 70.4067L550.266 68.1123L545.389 70.5533L545.821 73.819ZM545.085 68.2158L548.561 66.4759L546.881 64.8479C546.036 64.0466 545.217 63.2115 544.398 62.3764L544.28 62.4355C544.467 63.6085 544.636 64.7898 544.788 65.9796L545.085 68.2158Z" fill="#D9D9D9"/>
<path d="M549.751 59.6228L548.849 57.5461L559.198 53.0483L560.1 55.1251L556.276 56.7873L560.638 66.8249L557.973 67.9832L553.611 57.9456L549.751 59.6228Z" fill="#D9D9D9"/>
<path d="M565.963 64.5906L561.419 52.1877L570.863 48.7279L571.642 50.8542L564.909 53.3208L565.954 56.1734L571.996 53.96L572.755 56.033L566.713 58.2465L567.895 61.4712L574.61 59.0111L575.389 61.1373L565.963 64.5906Z" fill="#D9D9D9"/>
<path d="M577.874 48.8489L577.272 46.6659L588.151 43.6674L588.752 45.8504L584.732 46.9585L587.64 57.5097L584.839 58.2819L581.931 47.7307L577.874 48.8489Z" fill="#D9D9D9"/>
<path d="M598.517 55.2088C594.528 56.0444 591.404 54.0187 590.526 49.8262C589.648 45.6337 591.7 42.5434 595.689 41.7078C599.66 40.8761 602.798 42.8793 603.676 47.0719C604.554 51.2644 602.525 54.3693 598.517 55.2088ZM593.463 49.2111C594.093 52.2216 595.833 53.4382 598.049 52.974C600.265 52.5098 601.37 50.6974 600.74 47.6869C600.121 44.7319 598.355 43.4822 596.157 43.9426C593.941 44.4068 592.844 46.2561 593.463 49.2111Z" fill="#D9D9D9"/>
<path d="M606.915 53.2984L605.038 40.2235L607.895 39.8132L609.451 50.6467L615.895 49.7215L616.217 51.963L606.915 53.2984Z" fill="#D9D9D9"/>
<path d="M617.926 51.7923L616.77 38.634L619.646 38.3813L620.604 49.284L627.089 48.7143L627.287 50.97L617.926 51.7923Z" fill="#D9D9D9"/>
<path d="M705.314 60.9805L709.836 48.5697L713.772 50.0038L713.711 55.6851C713.679 57.0393 713.654 58.3757 713.605 59.7235L713.729 59.7687C714.534 58.7165 715.351 57.6884 716.191 56.6491L719.836 52.2132L723.79 53.6538L719.268 66.0646L716.608 65.0956L718.611 59.5993C719.108 58.2342 719.588 56.8625 720.11 55.486L720.021 55.4537C719.098 56.6639 718.164 57.8499 717.205 59.0471L713.364 63.9134L711.201 63.1252L711.379 56.904C711.444 55.4015 711.481 53.8683 711.564 52.3723L711.457 52.3335C710.971 53.7229 710.463 55.0639 709.965 56.4291L707.956 61.943L705.314 60.9805Z" fill="#D9D9D9"/>
<path d="M726.971 69.7932C723.254 68.1191 721.923 64.6426 723.682 60.7371C725.442 56.8315 728.92 55.5423 732.636 57.2164C736.335 58.8827 737.692 62.3497 735.932 66.2553C734.173 70.1608 730.704 71.475 726.971 69.7932ZM726.418 61.9694C725.155 64.7738 725.844 66.7813 727.908 67.7114C729.973 68.6414 731.933 67.8274 733.197 65.023C734.437 62.2702 733.746 60.2204 731.698 59.2982C729.634 58.3681 727.658 59.2166 726.418 61.9694Z" fill="#D9D9D9"/>
<path d="M741.819 66.1593C741.169 67.4165 740.486 68.6559 739.819 69.9042L737.374 74.4813L734.91 73.1655L741.134 61.5146L743.947 63.0171L744.442 69.6997C744.533 71.0106 744.617 72.2961 744.653 73.7913L744.778 73.8368C745.438 72.5208 746.034 71.4057 746.63 70.2905L749.057 65.7466L751.553 67.0803L745.33 78.7312L742.583 77.2642L742.178 71.0146C742.068 69.4583 741.975 67.9109 741.937 66.1793L741.819 66.1593Z" fill="#D9D9D9"/>
<path d="M754.239 68.7048L756.72 70.181L749.966 81.5329L747.485 80.0567L754.239 68.7048Z" fill="#D9D9D9"/>
<path d="M757.416 73.1811L758.653 71.2844L768.105 77.4484L766.868 79.3451L763.375 77.0671L757.396 86.2345L754.962 84.6472L760.941 75.4797L757.416 73.1811Z" fill="#D9D9D9"/>
<path d="M766.344 92.8603C763.069 90.4341 762.507 86.7539 765.057 83.312C767.607 79.87 771.279 79.35 774.555 81.7762C777.815 84.1911 778.403 87.8673 775.853 91.3093C773.303 94.7513 769.634 95.2977 766.344 92.8603ZM767.468 85.0979C765.637 87.5694 765.883 89.6777 767.703 91.0255C769.522 92.3734 771.611 91.9949 773.442 89.5234C775.239 87.0973 775 84.9475 773.195 83.6109C771.376 82.263 769.265 82.6718 767.468 85.0979Z" fill="#D9D9D9"/>
<path d="M773.357 97.8376L781.911 87.7725L787.087 92.1717C789.1 93.8825 789.47 95.8069 788.126 97.3886C786.904 98.8265 785.014 98.9531 783.646 97.9396L783.561 98.0403C784.781 99.2263 784.89 100.235 783.971 101.782L781.97 105.157L779.712 103.239L781.308 100.633C782.066 99.4199 781.917 98.8966 780.666 97.8335L778.624 96.0982L775.557 99.7073L773.357 97.8376ZM779.956 94.5309L782.242 96.4739C783.277 97.3537 784.503 97.281 785.358 96.2745C786.153 95.3399 785.995 94.2149 784.931 93.3106L782.644 91.3676L779.956 94.5309Z" fill="#D9D9D9"/>
<path d="M791.823 111.533C793.413 113.144 795.493 113.371 797.642 111.25C799.871 109.05 799.564 107.019 798 105.435L796.396 103.81L790.218 109.908L791.823 111.533ZM786.579 109.444L795.979 100.164L799.678 103.911C802.342 106.61 802.973 110.177 799.737 113.372C796.353 116.713 792.929 115.877 790.277 113.191L786.579 109.444Z" fill="#D9D9D9"/>
<path d="M806.117 110.688L808.046 112.836L798.217 121.661L796.288 119.513L806.117 110.688Z" fill="#D9D9D9"/>
<path d="M803.06 127.794C800.655 124.861 800.569 122.077 802.823 120.302L804.617 122.491C803.551 123.511 803.653 124.916 804.874 126.404C805.984 127.788 807.07 128.19 807.946 127.472C808.734 126.826 808.293 125.724 807.605 124.409L807.029 123.319C805.956 121.295 804.926 118.968 807.187 117.113C808.953 115.666 811.451 116.302 813.676 119.016C815.83 121.642 815.845 124.339 813.619 126.237L811.848 124.077C812.965 123.088 812.94 121.718 811.887 120.434C810.846 119.165 809.771 118.777 808.998 119.411C808.152 120.105 808.628 121.252 809.316 122.567L809.959 123.797C810.996 125.776 811.974 127.951 809.902 129.65C807.874 131.314 805.357 130.595 803.06 127.794Z" fill="#D9D9D9"/>
<path d="M816.033 125.959L817.865 124.628L824.495 133.76L822.662 135.09L820.212 131.715L811.356 138.145L809.649 135.794L818.505 129.364L816.033 125.959Z" fill="#D9D9D9"/>
<path d="M814.698 142.861L825.85 135.782L829.491 141.517C830.907 143.747 830.69 145.695 828.938 146.807C827.345 147.819 825.502 147.38 824.496 146.007L824.384 146.077C825.199 147.572 825.004 148.567 823.668 149.773L820.757 152.404L819.169 149.903L821.465 147.886C822.548 146.953 822.56 146.408 821.681 145.022L820.244 142.76L816.246 145.299L814.698 142.861ZM821.981 141.658L823.589 144.191C824.317 145.338 825.509 145.631 826.624 144.924C827.66 144.266 827.842 143.145 827.094 141.966L825.486 139.433L821.981 141.658Z" fill="#D9D9D9"/>
<path d="M833.078 147.47L834.512 149.976L823.046 156.535L821.612 154.028L833.078 147.47Z" fill="#D9D9D9"/>
<path d="M824.326 158.702L836.079 152.675L839.274 158.904C840.342 160.986 840.064 162.719 838.402 163.571C836.84 164.372 835.231 163.798 834.311 162.17L834.194 162.23C835.083 164.171 834.603 166.007 832.84 166.911C830.658 168.03 828.657 167.148 827.271 164.445L824.326 158.702ZM827.658 160.238L829.174 163.193C829.768 164.352 830.649 164.705 831.623 164.206C832.563 163.724 832.756 162.819 832.162 161.66L830.647 158.705L827.658 160.238ZM832.46 157.775L833.855 160.495C834.372 161.503 835.362 161.822 836.252 161.365C837.075 160.943 837.311 160.038 836.846 159.131L835.382 156.277L832.46 157.775Z" fill="#D9D9D9"/>
<path d="M834.67 168.102L842.223 164.838L843.368 167.488L835.919 170.707C834.118 171.485 833.455 172.758 834.249 174.595C835.042 176.431 836.404 176.87 838.257 176.069L845.688 172.858L846.833 175.508L839.281 178.772C835.955 180.209 833.473 178.651 832.118 175.515C830.816 172.501 831.344 169.539 834.67 168.102Z" fill="#D9D9D9"/>
<path d="M845.462 178.225L847.592 177.459L851.411 188.078L849.28 188.844L847.869 184.92L837.57 188.623L836.587 185.889L846.886 182.185L845.462 178.225Z" fill="#D9D9D9"/>
<path d="M839.464 194.093L852.134 190.357L854.979 200.004L852.807 200.644L850.779 193.766L847.865 194.626L849.685 200.798L847.567 201.422L845.747 195.25L842.453 196.221L844.476 203.081L842.304 203.722L839.464 194.093Z" fill="#D9D9D9"/>
<path d="M846.158 210.113C846.661 212.321 848.309 213.61 851.253 212.939C854.307 212.243 855.116 210.355 854.621 208.184L854.114 205.958L845.65 207.887L846.158 210.113ZM842.801 205.575L855.68 202.64L856.85 207.773C857.693 211.471 856.35 214.835 851.916 215.846C847.279 216.903 844.81 214.388 843.971 210.709L842.801 205.575Z" fill="#D9D9D9"/>
<path d="M847.039 228.907C846.513 225.151 847.889 222.729 850.738 222.387L851.13 225.19C849.688 225.506 849.044 226.759 849.311 228.665C849.538 230.424 850.256 231.334 851.377 231.177C852.387 231.035 852.585 229.864 852.682 228.384L852.758 227.154C852.895 224.867 853.227 222.343 856.124 221.938C858.385 221.621 860.187 223.465 860.673 226.941C861.144 230.305 859.753 232.614 856.864 233.076L856.477 230.31C857.945 230.048 858.637 228.865 858.407 227.22C858.179 225.594 857.464 224.704 856.474 224.842C855.39 224.994 855.199 226.221 855.102 227.702L855.01 229.087C854.865 231.317 854.567 233.683 851.914 234.055C849.316 234.419 847.542 232.495 847.039 228.907Z" fill="#D9D9D9"/>
<path d="M861.251 233.079L861.526 236.332L859.795 237.595C858.275 238.651 857.434 239.233 856.427 239.868L856.438 239.999C857.537 240.456 858.501 240.886 860.236 241.705L862.054 242.593L862.32 245.752L853.993 241.55L848.747 241.992L848.503 239.097L853.768 238.653L861.251 233.079Z" fill="#D9D9D9"/>
<path d="M849.019 252.662C848.909 248.87 850.543 246.614 853.411 246.588L853.493 249.417C852.025 249.573 851.248 250.747 851.303 252.671C851.336 254.445 851.95 255.427 853.081 255.394C854.1 255.365 854.426 254.223 854.685 252.762L854.895 251.547C855.283 249.29 855.891 246.818 858.815 246.733C861.097 246.667 862.685 248.698 862.787 252.206C862.885 255.601 861.248 257.744 858.326 257.885L858.245 255.094C859.734 254.994 860.551 253.894 860.503 252.234C860.456 250.593 859.843 249.63 858.843 249.658C857.749 249.69 857.425 250.889 857.165 252.35L856.922 253.716C856.532 255.917 855.977 258.237 853.298 258.314C850.676 258.39 849.124 256.283 849.019 252.662Z" fill="#D9D9D9"/>
<path d="M860.408 259.093L862.672 259.149L862.394 270.43L860.13 270.374L860.233 266.205L849.292 265.936L849.363 263.03L860.304 263.3L860.408 259.093Z" fill="#D9D9D9"/>
<path d="M849.074 271.744L862.242 272.792L861.444 282.818L859.186 282.639L859.755 275.491L856.727 275.25L856.216 281.664L854.015 281.489L854.526 275.074L851.102 274.802L850.535 281.931L848.278 281.752L849.074 271.744Z" fill="#D9D9D9"/>
<path d="M848.135 283.637L861.2 285.578L860.585 289.721L855.006 290.8C853.673 291.041 852.359 291.285 851.029 291.507L851.009 291.637C852.202 292.215 853.373 292.809 854.559 293.424L859.636 296.105L859.018 300.267L845.952 298.326L846.368 295.526L852.154 296.386C853.592 296.6 855.032 296.794 856.485 297.029L856.499 296.936C855.128 296.275 853.779 295.597 852.414 294.898L846.876 292.111L847.214 289.834L853.345 288.76C854.83 288.523 856.339 288.251 857.821 288.033L857.838 287.921C856.379 287.723 854.963 287.494 853.526 287.28L847.721 286.418L848.135 283.637Z" fill="#D9D9D9"/>
<path d="M844.008 305.795C844.832 302.092 846.969 300.306 849.757 300.985L849.142 303.748C847.68 303.538 846.638 304.486 846.22 306.364C845.816 308.092 846.17 309.195 847.275 309.441C848.27 309.662 848.865 308.635 849.476 307.283L849.978 306.157C850.908 304.064 852.104 301.817 854.959 302.452C857.188 302.948 858.229 305.307 857.466 308.733C856.728 312.048 854.615 313.724 851.748 313.143L852.355 310.417C853.822 310.686 854.885 309.82 855.245 308.2C855.602 306.597 855.244 305.512 854.268 305.295C853.2 305.057 852.591 306.14 851.981 307.492L851.41 308.757C850.492 310.795 849.384 312.907 846.768 312.325C844.208 311.755 843.22 309.331 844.008 305.795Z" fill="#D9D9D9"/>
<path d="M806.462 386.445L808.325 384.142L815.472 396.309L813.228 399.082L799.743 394.748L801.666 392.371L804.775 393.479L808.205 389.24L806.462 386.445ZM809.45 391.242L807.004 394.264L809.207 395.051C810.307 395.432 811.398 395.853 812.489 396.275L812.573 396.172C811.918 395.181 811.275 394.176 810.644 393.155L809.45 391.242Z" fill="#D9D9D9"/>
<path d="M803.088 398.435L809.138 404.01L807.182 406.133L801.215 400.635C799.771 399.305 798.339 399.217 796.984 400.687C795.628 402.158 795.78 403.581 797.265 404.949L803.218 410.435L801.261 412.558L795.211 406.983C792.547 404.528 792.962 401.626 795.277 399.115C797.502 396.7 800.423 395.98 803.088 398.435Z" fill="#D9D9D9"/>
<path d="M798.21 412.434L799.778 414.068L791.633 421.879L790.066 420.244L793.076 417.358L785.5 409.458L787.598 407.447L795.173 415.346L798.21 412.434Z" fill="#D9D9D9"/>
<path d="M777.019 416.669C780.128 414.033 783.839 414.325 786.609 417.593C789.379 420.86 789.048 424.555 785.939 427.191C782.844 429.814 779.13 429.548 776.361 426.281C773.591 423.014 773.895 419.317 777.019 416.669ZM784.32 419.533C782.331 417.187 780.222 416.946 778.495 418.41C776.768 419.875 776.66 421.995 778.649 424.341C780.602 426.644 782.749 426.901 784.462 425.449C786.189 423.985 786.273 421.836 784.32 419.533Z" fill="#D9D9D9"/>
<path d="M770.618 422.4L778.362 433.102L774.968 435.557L770.298 432.322C769.194 431.537 768.101 430.767 767.013 429.971L766.906 430.048C767.326 431.305 767.719 432.557 768.109 433.836L769.74 439.341L766.331 441.808L758.587 431.106L760.88 429.447L764.31 434.186C765.161 435.363 766.028 436.529 766.876 437.733L766.952 437.678C766.468 436.235 766.009 434.797 765.555 433.332L763.678 427.423L765.543 426.073L770.595 429.708C771.803 430.604 773.052 431.493 774.245 432.401L774.336 432.335C773.458 431.153 772.633 429.98 771.781 428.803L768.341 424.049L770.618 422.4Z" fill="#D9D9D9"/>
<path d="M755.062 433.304L757.583 431.747L760.301 445.594L757.267 447.468L745.975 438.916L748.576 437.31L751.143 439.384L755.783 436.518L755.062 433.304ZM756.295 438.819L752.988 440.862L754.806 442.334C755.718 443.057 756.608 443.816 757.498 444.575L757.611 444.505C757.321 443.353 757.047 442.192 756.789 441.02L756.295 438.819Z" fill="#D9D9D9"/>
<path d="M752.42 447.796L753.509 449.781L743.615 455.207L742.526 453.222L746.183 451.216L740.92 441.62L743.468 440.223L748.731 449.819L752.42 447.796Z" fill="#D9D9D9"/>
<path d="M735.795 444.34L741.492 456.257L732.418 460.595L731.441 458.552L737.911 455.46L736.6 452.719L730.795 455.494L729.843 453.502L735.648 450.727L734.167 447.628L727.715 450.713L726.738 448.67L735.795 444.34Z" fill="#D9D9D9"/>
<path d="M634.869 467.351L634.191 480.542L627.407 480.194C624.769 480.059 623.305 478.755 623.412 476.682C623.508 474.798 624.933 473.548 626.635 473.522L626.642 473.39C624.951 473.19 624.252 472.455 624.042 470.668L623.58 466.771L626.539 466.923L626.855 469.962C626.99 471.386 627.427 471.711 629.066 471.795L631.742 471.933L631.985 467.203L634.869 467.351ZM631.637 473.987L628.641 473.833C627.284 473.763 626.354 474.566 626.287 475.885C626.224 477.11 627.033 477.907 628.428 477.979L631.424 478.133L631.637 473.987Z" fill="#D9D9D9"/>
<path d="M621.803 466.589L620.313 479.714L610.319 478.579L610.575 476.329L617.7 477.138L618.043 474.12L611.649 473.393L611.898 471.2L618.292 471.926L618.679 468.513L611.573 467.706L611.829 465.456L621.803 466.589Z" fill="#D9D9D9"/>
<path d="M609.922 465.155L607.687 478.173L604.841 477.685L606.693 466.898L600.277 465.797L600.66 463.565L609.922 465.155Z" fill="#D9D9D9"/>
<path d="M598.994 463.222L596.018 476.091L586.219 473.825L586.729 471.619L593.715 473.235L594.4 470.275L588.131 468.825L588.628 466.674L594.897 468.124L595.671 464.778L588.703 463.166L589.213 460.96L598.994 463.222Z" fill="#D9D9D9"/>
<path d="M585.604 459.947L588.442 460.798L579.897 472.026L576.48 471.003L575.373 456.882L578.301 457.759L578.456 461.056L583.68 462.621L585.604 459.947ZM582.3 464.532L578.576 463.416L578.684 465.753C578.749 466.915 578.773 468.085 578.797 469.254L578.923 469.292C579.592 468.31 580.278 467.334 580.983 466.363L582.3 464.532Z" fill="#D9D9D9"/>
<path d="M569.634 454.43C573.19 455.749 574.669 458.109 573.619 460.778L570.965 459.794C571.371 458.375 570.573 457.214 568.769 456.544C567.112 455.91 565.971 456.11 565.578 457.172C565.223 458.127 566.16 458.857 567.417 459.645L568.464 460.295C570.412 461.501 572.476 462.991 571.459 465.733C570.665 467.874 568.187 468.585 564.896 467.365C561.712 466.184 560.339 463.863 561.303 461.101L563.921 462.072C563.456 463.489 564.169 464.66 565.726 465.237C567.265 465.808 568.388 465.601 568.736 464.663C569.117 463.637 568.127 462.887 566.87 462.099L565.694 461.361C563.799 460.175 561.857 458.791 562.789 456.279C563.701 453.819 566.237 453.17 569.634 454.43Z" fill="#D9D9D9"/>
<path d="M562.477 451.979L557.136 464.06L547.937 459.993L548.853 457.922L555.411 460.822L556.64 458.043L550.754 455.441L551.647 453.422L557.532 456.024L558.921 452.883L552.38 449.991L553.296 447.92L562.477 451.979Z" fill="#D9D9D9"/>
<path d="M547.514 445.057L541.221 456.67L532.378 451.879L533.457 449.888L539.762 453.304L541.209 450.633L535.551 447.568L536.603 445.626L542.261 448.692L543.897 445.672L537.609 442.265L538.688 440.274L547.514 445.057Z" fill="#D9D9D9"/>
<path d="M529.667 445.849C530.402 444.64 531.17 443.451 531.922 442.252L534.678 437.855L537.044 439.338L530.029 450.53L527.326 448.836L527.295 442.136C527.295 440.822 527.301 439.533 527.368 438.039L527.247 437.985C526.497 439.252 525.825 440.324 525.154 441.395L522.418 445.76L520.02 444.256L527.035 433.064L529.673 434.718L529.645 440.981C529.647 442.541 529.633 444.091 529.551 445.821L529.667 445.849Z" fill="#D9D9D9"/>
<path d="M520.784 428.263C523.59 430.307 524.097 433.874 521.553 437.367C519.108 440.723 515.488 441.494 512.041 438.983C509.143 436.872 508.435 433.998 509.833 431.375L512.243 433.13C511.587 434.543 511.875 436.038 513.37 437.126C515.501 438.656 517.576 437.762 519.143 435.612C520.709 433.461 520.843 431.13 518.585 429.486C516.969 428.308 515.08 428.497 514.078 429.681L513.951 429.823L517.002 432.045L515.802 433.692L510.57 429.881L514.703 424.207L516.671 425.64L515.156 427.945L515.278 428.034C516.628 427.173 518.542 426.629 520.784 428.263Z" fill="#D9D9D9"/>
<path d="M504.647 432.98L502.398 431.17L510.678 420.879L512.928 422.689L504.647 432.98Z" fill="#D9D9D9"/>
<path d="M500.364 424.571C501.286 423.498 502.237 422.449 503.174 421.388L506.608 417.498L508.702 419.347L499.96 429.249L497.569 427.138L498.628 420.521C498.841 419.225 499.056 417.955 499.366 416.491L499.255 416.418C498.309 417.547 497.472 418.494 496.636 419.442L493.226 423.304L491.104 421.431L499.846 411.529L502.18 413.589L501.134 419.764C500.882 421.304 500.616 422.831 500.254 424.524L500.364 424.571Z" fill="#D9D9D9"/>
<path d="M498.052 409.793L488.732 419.152L481.605 412.055L483.203 410.451L488.284 415.511L490.428 413.358L485.868 408.817L487.426 407.253L491.985 411.793L494.409 409.36L489.341 404.314L490.939 402.709L498.052 409.793Z" fill="#D9D9D9"/>
<path d="M489.512 401.205L480.105 410.478L473.044 403.316L474.657 401.726L479.691 406.833L481.855 404.7L477.337 400.118L478.91 398.568L483.427 403.15L485.873 400.739L480.852 395.646L482.464 394.056L489.512 401.205Z" fill="#D9D9D9"/>
<path d="M480.962 392.535L471.555 401.809L466.786 396.971C464.932 395.089 464.732 393.14 466.21 391.683C467.554 390.358 469.449 390.398 470.722 391.528L470.816 391.435C469.704 390.146 469.685 389.132 470.736 387.672L473.027 384.486L475.107 386.596L473.288 389.051C472.426 390.193 472.529 390.727 473.681 391.896L475.562 393.804L478.935 390.479L480.962 392.535ZM474.097 395.248L471.991 393.112C471.037 392.144 469.81 392.109 468.869 393.036C467.996 393.897 468.054 395.032 469.035 396.026L471.141 398.163L474.097 395.248Z" fill="#D9D9D9"/>
<path d="M462.235 392.348L460.208 390.292L469.615 381.018L471.642 383.075L462.235 392.348Z" fill="#D9D9D9"/>
<path d="M459.052 383.75C460.047 382.743 461.068 381.763 462.076 380.77L465.771 377.127L467.732 379.116L458.325 388.389L456.086 386.118L457.601 379.59C457.904 378.311 458.206 377.059 458.617 375.621L458.511 375.54C457.489 376.6 456.589 377.488 455.688 378.376L452.02 381.992L450.032 379.976L459.439 370.703L461.625 372.921L460.154 379.008C459.796 380.527 459.425 382.032 458.946 383.696L459.052 383.75Z" fill="#D9D9D9"/>
<path d="M453.485 364.236C455.923 366.709 455.843 370.311 452.766 373.345C449.81 376.259 446.112 376.433 443.118 373.396C440.601 370.842 440.369 367.892 442.174 365.53L444.267 367.653C443.39 368.941 443.433 370.462 444.731 371.779C446.586 373.634 448.778 373.089 450.673 371.221C452.568 369.354 453.078 367.076 451.117 365.087C449.713 363.662 447.819 363.542 446.638 364.548L446.49 364.667L449.139 367.354L447.688 368.785L443.144 364.176L448.143 359.248L449.852 360.981L447.983 363.009L448.089 363.117C449.561 362.487 451.538 362.261 453.485 364.236Z" fill="#D9D9D9"/>
<path d="M378.28 428.964C381.367 426.759 384.15 426.858 385.772 429.225L383.468 430.87C382.521 429.738 381.112 429.747 379.546 430.866C378.092 431.881 377.618 432.939 378.276 433.86C378.869 434.689 379.998 434.323 381.356 433.724L382.481 433.221C384.572 432.285 386.963 431.412 388.663 433.792C389.99 435.649 389.19 438.1 386.334 440.14C383.57 442.114 380.878 441.95 379.132 439.603L381.404 437.979C382.317 439.16 383.686 439.225 385.037 438.26C386.373 437.306 386.831 436.259 386.25 435.446C385.614 434.555 384.438 434.954 383.08 435.553L381.81 436.113C379.766 437.016 377.531 437.848 375.973 435.668C374.448 433.533 375.332 431.07 378.28 428.964Z" fill="#D9D9D9"/>
<path d="M379.265 442.024L380.474 443.938L370.935 449.966L369.725 448.052L373.251 445.824L367.404 436.572L369.861 435.02L375.707 444.272L379.265 442.024Z" fill="#D9D9D9"/>
<path d="M362.474 439.622L368.841 451.195L362.889 454.47C360.575 455.743 358.644 455.406 357.644 453.587C356.734 451.934 357.288 450.121 358.721 449.204L358.657 449.088C357.115 449.807 356.133 449.55 355.014 448.142L352.57 445.071L355.166 443.643L357.035 446.061C357.899 447.201 358.441 447.247 359.88 446.455L362.227 445.164L359.944 441.014L362.474 439.622ZM363.219 446.966L360.59 448.412C359.4 449.067 359.032 450.239 359.669 451.396C360.26 452.471 361.368 452.722 362.591 452.049L365.22 450.603L363.219 446.966Z" fill="#D9D9D9"/>
<path d="M356.751 457.664L354.161 458.94L348.321 447.092L350.911 445.816L356.751 457.664Z" fill="#D9D9D9"/>
<path d="M342.637 449.743L352.335 459.921L349.516 461.153L345.668 456.821C344.509 455.536 343.343 454.233 342.211 452.915L342.09 452.968L342.588 458.208L343.136 463.94L340.386 465.141L339.473 451.126L342.637 449.743Z" fill="#D9D9D9"/>
<path d="M333.797 453.496L338.323 465.905L328.874 469.352L328.098 467.225L334.835 464.767L333.794 461.913L327.749 464.118L326.992 462.044L333.037 459.839L331.86 456.613L325.142 459.064L324.366 456.936L333.797 453.496Z" fill="#D9D9D9"/>
<path d="M318.214 458.862L321.733 471.594L312.421 474.167L311.817 471.985L318.347 470.18L317.407 466.779L311.441 468.428L310.853 466.3L316.819 464.651L315.431 459.631L318.214 458.862Z" fill="#D9D9D9"/>
<path d="M301.252 462.822C305.242 461.992 308.363 464.021 309.236 468.215C310.109 472.408 308.053 475.496 304.063 476.327C300.091 477.154 296.956 475.147 296.083 470.953C295.21 466.759 297.243 463.657 301.252 462.822ZM306.299 468.826C305.672 465.815 303.934 464.596 301.717 465.058C299.5 465.519 298.393 467.33 299.02 470.341C299.635 473.297 301.399 474.549 303.598 474.091C305.815 473.63 306.914 471.782 306.299 468.826Z" fill="#D9D9D9"/>
<path d="M292.845 464.743L294.64 477.83L287.91 478.753C285.293 479.112 283.612 478.104 283.329 476.048C283.073 474.178 284.24 472.685 285.907 472.342L285.889 472.211C284.191 472.33 283.367 471.738 282.827 470.022L281.647 466.279L284.582 465.876L285.46 468.804C285.857 470.177 286.347 470.415 287.974 470.192L290.628 469.828L289.985 465.135L292.845 464.743ZM290.908 471.866L287.935 472.273C286.589 472.458 285.826 473.42 286.006 474.728C286.172 475.944 287.116 476.576 288.499 476.386L291.472 475.978L290.908 471.866Z" fill="#D9D9D9"/>
<path d="M270.114 466.81C273.902 466.62 276.193 468.205 276.28 471.073L273.453 471.215C273.266 469.75 272.076 468.998 270.154 469.095C268.381 469.165 267.412 469.799 267.469 470.93C267.52 471.948 268.669 472.249 270.135 472.478L271.353 472.662C273.619 473.001 276.103 473.557 276.25 476.478C276.365 478.758 274.368 480.389 270.863 480.565C267.471 480.736 265.293 479.145 265.09 476.227L267.879 476.086C268.011 477.572 269.127 478.366 270.786 478.283C272.425 478.201 273.376 477.567 273.326 476.568C273.271 475.475 272.066 475.177 270.599 474.948L269.228 474.734C267.019 474.391 264.689 473.885 264.554 471.209C264.422 468.589 266.496 466.992 270.114 466.81Z" fill="#D9D9D9"/>
<path d="M262.605 480.54L259.718 480.563L259.612 467.355L262.499 467.332L262.605 480.54Z" fill="#D9D9D9"/>
<path d="M257.108 467.463L256.447 480.655L252.263 480.445L250.647 474.998C250.278 473.695 249.907 472.411 249.557 471.108L249.425 471.102C248.966 472.345 248.489 473.568 247.992 474.809L245.818 480.122L241.615 479.911L242.276 466.719L245.103 466.861L244.81 472.703C244.738 474.154 244.684 475.606 244.591 477.075L244.685 477.08C245.211 475.652 245.753 474.243 246.316 472.816L248.552 467.034L250.851 467.149L252.516 473.146C252.896 474.601 253.313 476.077 253.675 477.531L253.788 477.537C253.843 476.066 253.934 474.634 254.006 473.183L254.3 467.322L257.108 467.463Z" fill="#D9D9D9"/>
<path d="M239.886 466.428L238.274 479.538L232.374 478.813C229.565 478.467 227.701 476.774 228.053 473.908C228.385 471.211 230.66 469.875 233.544 470.23L236.466 470.589L237.021 466.075L239.886 466.428ZM236.217 472.612L233.801 472.315C232.321 472.133 231.15 472.692 230.97 474.153C230.786 475.651 231.789 476.459 233.269 476.641L235.685 476.938L236.217 472.612Z" fill="#D9D9D9"/>
<path d="M227.285 464.783L224.937 477.782L222.095 477.269L224.041 466.498L217.635 465.341L218.037 463.113L227.285 464.783Z" fill="#D9D9D9"/>
<path d="M213.478 475.591L210.659 474.968L213.511 462.071L216.33 462.694L213.478 475.591Z" fill="#D9D9D9"/>
<path d="M205.325 459.722C209.224 460.773 210.983 463.964 209.863 468.118C208.738 472.29 205.628 474.11 201.729 473.059C198.377 472.155 196.695 469.767 197.006 466.802L199.885 467.578C199.869 469.157 200.684 470.412 202.324 470.854C204.437 471.424 206.209 470.143 206.966 467.337C207.722 464.531 206.826 462.492 204.64 461.902C202.872 461.426 201.414 462.342 200.714 464.068L197.871 463.302C198.994 460.224 201.754 458.759 205.325 459.722Z" fill="#D9D9D9"/>
<path d="M193.357 470.302L190.607 469.425L194.623 456.841L197.373 457.719L193.357 470.302Z" fill="#D9D9D9"/>
<path d="M189.252 466.662L188.476 468.79L177.874 464.925L178.65 462.797L182.568 464.226L186.317 453.943L189.047 454.938L185.298 465.221L189.252 466.662Z" fill="#D9D9D9"/>
<path d="M176.093 464.239L173.099 462.938L172.808 460.815C172.6 458.976 172.486 457.959 172.406 456.772L172.285 456.719C171.362 457.47 170.526 458.115 168.981 459.254L167.337 460.432L164.43 459.168L172.079 453.831L174.179 449.003L176.844 450.162L174.737 455.007L176.093 464.239Z" fill="#D9D9D9"/>
<path d="M110.358 405.471L100.809 414.597L93.86 407.326L95.4971 405.761L100.451 410.945L102.648 408.846L98.2019 404.194L99.7981 402.669L104.244 407.321L106.727 404.948L101.786 399.778L103.423 398.213L110.358 405.471Z" fill="#D9D9D9"/>
<path d="M102.096 396.845L91.9185 405.265L89.2482 402.037L92.1746 397.167C92.8867 396.015 93.5842 394.874 94.3082 393.736L94.2241 393.635C92.9973 394.135 91.7731 394.609 90.5223 395.081L85.1346 397.064L82.4523 393.822L92.63 385.402L94.4342 387.583L89.9269 391.312C88.8074 392.238 87.6999 393.179 86.5538 394.102L86.6139 394.175C88.0221 393.598 89.4278 393.047 90.8601 392.499L96.6354 390.244L98.1028 392.018L94.8029 397.295C93.9865 398.558 93.1797 399.862 92.3513 401.111L92.4235 401.198C93.5456 400.245 94.6626 399.345 95.7822 398.419L100.304 394.679L102.096 396.845Z" fill="#D9D9D9"/>
<path d="M91.2313 383.431L80.4549 391.07L76.4065 385.358C75.0534 383.449 75.0817 381.695 76.6057 380.614C78.0375 379.599 79.7121 379.939 80.854 381.419L80.9618 381.343C79.8057 379.549 80.0187 377.663 81.6352 376.517C83.6365 375.099 85.7424 375.688 87.4993 378.166L91.2313 383.431ZM87.7143 382.385L85.7938 379.676C85.0408 378.614 84.1181 378.389 83.2252 379.022C82.3631 379.633 82.3006 380.556 83.0535 381.618L84.9741 384.328L87.7143 382.385ZM83.3114 385.506L81.5436 383.012C80.8889 382.089 79.8629 381.914 79.047 382.492C78.2927 383.027 78.1884 383.957 78.7776 384.788L80.6327 387.405L83.3114 385.506Z" fill="#D9D9D9"/>
<path d="M83.7981 372.811L72.5513 379.738L68.9887 373.954C67.6032 371.705 67.846 369.76 69.6134 368.672C71.2201 367.682 73.0573 368.146 74.0443 369.533L74.1568 369.463C73.3625 367.958 73.5711 366.965 74.923 365.778L77.8704 363.187L79.4241 365.709L77.1007 367.695C76.0046 368.613 75.985 369.157 76.846 370.555L78.2512 372.837L82.284 370.353L83.7981 372.811ZM76.4999 373.915L74.9265 371.361C74.2139 370.204 73.0258 369.894 71.9011 370.587C70.8568 371.23 70.6594 372.349 71.3917 373.538L72.9652 376.093L76.4999 373.915Z" fill="#D9D9D9"/>
<path d="M75.9511 359.675L77.3273 362.299L63.3246 364.04L61.6679 360.882L70.9897 350.217L72.4097 352.924L70.1609 355.34L72.6942 360.169L75.9511 359.675ZM70.363 360.518L68.5573 357.076L66.9615 358.787C66.1764 359.646 65.357 360.481 64.5377 361.315L64.599 361.432C65.7682 361.224 66.9462 361.032 68.1329 360.857L70.363 360.518Z" fill="#D9D9D9"/>
<path d="M68.6174 344.086C70.2553 347.777 68.8835 351.152 64.951 352.898C61.0012 354.65 57.6298 353.38 55.9918 349.689C54.5835 346.515 55.3802 343.705 57.8795 342.08L59.0889 344.805C57.8525 345.787 57.39 347.211 58.0789 348.763C58.9667 350.764 61.0778 351.334 63.734 350.155C66.3902 348.976 67.4106 346.996 66.4921 344.926C65.7496 343.253 64.1195 342.697 62.3373 343.24L61.1433 340.549C64.242 339.484 67.1172 340.706 68.6174 344.086Z" fill="#D9D9D9"/>
<path d="M65.1485 336.719L52.7551 341.288L49.2756 331.852L51.4002 331.068L53.8809 337.796L56.7314 336.745L54.5053 330.708L56.5767 329.944L58.8028 335.981L62.0251 334.793L59.551 328.083L61.6755 327.3L65.1485 336.719Z" fill="#D9D9D9"/>
<path d="M59.7075 321.205L46.9783 324.733L45.164 318.186C44.4585 315.64 45.2323 313.84 47.2326 313.285C49.051 312.781 50.6868 313.738 51.2495 315.344L51.3768 315.309C51.0323 313.642 51.5086 312.747 53.1373 311.982L56.6888 310.312L57.48 313.167L54.6964 314.428C53.388 315.006 53.218 315.523 53.6565 317.105L54.3721 319.688L58.9364 318.423L59.7075 321.205ZM52.39 320.237L51.5887 317.346C51.2258 316.036 50.1707 315.408 48.8977 315.761C47.7157 316.089 47.2151 317.109 47.5881 318.454L48.3894 321.346L52.39 320.237Z" fill="#D9D9D9"/>
<path d="M43.4626 311.448L42.817 308.634L55.6916 305.681L56.3372 308.495L43.4626 311.448Z" fill="#D9D9D9"/>
<path d="M54.4194 297.96C55.1048 301.691 53.8334 304.169 51.0021 304.632L50.4907 301.848C51.9178 301.47 52.5079 300.192 52.1601 298.299C51.8582 296.551 51.1021 295.673 49.9886 295.877C48.9863 296.061 48.8383 297.24 48.8039 298.723L48.7808 299.956C48.7412 302.246 48.5163 304.781 45.6396 305.31C43.3939 305.722 41.5155 303.957 40.8813 300.505C40.2676 297.164 41.5595 294.797 44.4259 294.213L44.9306 296.96C43.4746 297.285 42.8338 298.496 43.1338 300.13C43.4305 301.744 44.1831 302.604 45.1667 302.423C46.2432 302.225 46.381 300.991 46.4154 299.508L46.4483 298.12C46.4982 295.885 46.6947 293.509 49.3301 293.024C51.9099 292.551 53.7648 294.397 54.4194 297.96Z" fill="#D9D9D9"/>
<path d="M52.8397 290.574L39.7245 292.145L39.3811 289.278L45.4981 288.622L45.5221 288.505C44.192 287.714 43.1355 286.985 41.9928 286.172L38.7326 283.864L38.3219 280.435L41.9201 283.026C42.7316 283.613 43.606 284.249 44.422 284.874L44.5464 284.802C44.5415 283.491 45.0842 282.628 46.3592 281.848L51.4035 278.583L51.7626 281.581L47.9459 284.148C46.8539 284.868 46.6919 285.419 46.81 286.564L48.974 288.13L52.4964 287.708L52.8397 290.574Z" fill="#D9D9D9"/>
<path d="M690.599 54.3079C691.162 53.7119 691.608 52.994 691.8 52.1242C692.333 49.6979 690.798 47.2962 688.372 46.7624C685.945 46.2286 683.544 47.764 683.01 50.1904C682.476 52.6167 684.012 55.0184 686.438 55.5522C687.308 55.7436 688.146 55.6401 688.924 55.3792L691.27 59.1112L693.002 58.0042L690.599 54.3079ZM686.871 53.5836C685.543 53.2916 684.686 51.9511 684.978 50.6235C685.271 49.2959 686.611 48.4389 687.939 48.731C689.266 49.023 690.123 50.3635 689.831 51.6911C689.539 53.0187 688.199 53.8757 686.871 53.5836ZM688.328 45.2169C687.641 45.0658 686.868 45.0878 686.213 45.2315L685.845 44.2866L680.807 49.5137L678.632 45.4356L673.813 50.3267L672.462 48.8297L679.083 42.079L681.257 46.1571L686.549 40.6498L688.328 45.2169ZM690.781 46.2845C690.2 45.8688 689.554 45.5346 688.877 45.3377L695.6 38.5614L696.95 40.0584L690.781 46.2845Z" fill="#00DF66"/>
<path d="M124.947 83.7413C128.556 84.7869 131.248 87.7892 131.925 91.4658C132.067 92.2082 131.812 92.9198 131.278 93.3769L120.735 102.397C120.2 102.854 119.428 102.96 118.746 102.741C114.447 101.176 111.756 96.8769 112.213 92.2913C112.67 87.7057 116.212 84.0584 120.783 83.417L120.151 85.562C116.728 86.3926 114.3 89.3952 114.124 92.9388C113.948 96.4824 116.126 99.6774 119.424 100.865L129.968 91.8453C129.441 89.2111 127.684 87.013 125.209 85.9227L124.947 83.7413ZM121.951 95.3103C121.423 95.2692 120.909 95.0297 120.574 94.6379C120.209 94.2105 120.052 93.6663 120.093 93.1376L122.883 83.3478L124.089 93.482C124.047 94.0107 123.778 94.4884 123.386 94.8236C122.994 95.1588 122.48 95.3515 121.951 95.3103Z" fill="#00DF66"/>
<path d="M114.407 428.684C115.227 429.454 115.266 430.713 114.495 431.533C113.757 432.318 112.498 432.357 111.678 431.587C110.893 430.849 110.854 429.59 111.592 428.804C112.363 427.984 113.621 427.945 114.407 428.684ZM126.54 421.046L130.698 426.819L129.044 428.031L126.132 423.943L119.417 428.761L121.23 429.5L123.574 427.007L125.009 428.355L121.798 431.771L116.498 429.813C116.293 429.62 116.092 429.56 115.853 429.335C115.341 428.854 115.154 428.163 115.298 427.462L115.672 425.627C116.054 424.056 115.533 422.216 114.167 420.931L115.547 419.463C117.153 420.972 117.913 423.037 117.842 425.029L120.341 423.26L120.152 420.381L125.289 414.916L126.757 416.297L122.648 420.669L122.837 423.548L126.54 421.046Z" fill="#00DF66"/>
<path d="M468.573 115.499C469.51 114.515 471.101 114.476 472.085 115.413L475.718 118.872C479.112 122.104 479.244 127.472 476.012 130.867C472.779 134.262 467.379 134.427 463.984 131.195L457.806 125.312C456.821 124.374 456.782 122.784 457.752 121.765C457.849 121.663 457.978 121.528 458.109 121.458L457.702 121.07C456.717 120.133 456.678 118.542 457.648 117.524C457.81 117.354 457.973 117.251 458.169 117.113C457.748 116.195 457.887 115.098 458.631 114.317C459.471 113.434 460.827 113.302 461.805 113.974C461.9 113.806 462.03 113.67 462.159 113.534C463.096 112.55 464.687 112.511 465.671 113.448L468.251 115.905C468.314 115.771 468.444 115.635 468.573 115.499ZM474.328 120.331L470.695 116.873C470.492 116.679 470.193 116.653 469.999 116.857C469.805 117.06 469.813 117.392 470.017 117.586L473.276 120.689C472.144 121.877 472.191 123.799 473.379 124.93L471.99 126.39C470.496 124.968 470.113 122.855 470.731 121.049L464.281 114.908C464.078 114.714 463.779 114.688 463.585 114.892C463.391 115.095 463.399 115.427 463.603 115.621L468.321 120.114L466.931 121.574L460.753 115.691C460.549 115.497 460.284 115.503 460.09 115.707C459.896 115.911 459.87 116.21 460.074 116.403L466.253 122.286L464.863 123.746L459.771 118.898C459.567 118.704 459.302 118.71 459.108 118.914C458.914 119.118 458.888 119.417 459.092 119.611L464.897 125.138L463.507 126.598L459.874 123.139C459.671 122.945 459.406 122.952 459.212 123.155C459.018 123.359 458.992 123.658 459.196 123.852L465.374 129.735C467.954 132.191 472.063 132.091 474.552 129.477C477.008 126.897 476.908 122.788 474.328 120.331Z" fill="#00DF66"/>
<path d="M830.343 371.668C830.664 371.264 830.588 370.606 830.148 370.256C829.744 369.935 829.085 370.011 828.765 370.414C828.415 370.855 828.49 371.513 828.894 371.834C829.335 372.184 829.993 372.108 830.343 371.668ZM831.885 372.893C830.835 374.214 828.991 374.425 827.67 373.376C826.385 372.355 826.137 370.482 827.186 369.161C828.207 367.876 830.117 367.657 831.401 368.677C832.723 369.727 832.905 371.608 831.885 372.893ZM828.157 380.826L830.728 381.432L833.096 380.26L832.454 382.803L833.626 385.171L831.083 384.528L828.752 385.729L829.358 383.158L828.157 380.826ZM823.537 380.689L821.834 381.551L822.289 379.698L821.463 378.024L823.251 378.486L824.954 377.624L824.499 379.478L825.354 381.114L823.537 380.689ZM825.629 375.945C825.555 375.887 825.445 375.799 825.401 375.704L823.002 376.313L821.17 371.685L823.304 370.507C823.339 370.236 823.346 370.001 823.418 369.759L821.721 368.052L824.841 364.125L826.888 365.392C827.107 365.266 827.363 365.17 827.59 365.111L828.255 362.766L833.177 363.503L833.119 365.912C833.23 365.999 833.34 366.087 833.413 366.145C833.523 366.232 833.633 366.32 833.707 366.378L836.077 365.806L837.908 370.434L835.775 371.612C835.732 371.818 835.696 372.089 835.66 372.36L837.357 374.067L834.238 377.994L832.191 376.727C831.935 376.824 831.745 376.912 831.489 377.008L830.824 379.353L825.902 378.616L825.952 376.142C825.849 376.12 825.739 376.033 825.629 375.945ZM823.706 372.562L824.231 373.937L826.045 373.462C826.288 373.834 826.552 374.104 826.919 374.396C827.249 374.658 827.572 374.855 827.99 375.007L827.938 376.881L829.396 377.081L829.887 375.257C830.685 375.232 831.518 374.936 832.19 374.392L833.767 375.346L834.671 374.208L833.349 372.858C833.727 372.081 833.863 371.231 833.735 370.412L835.372 369.557L834.811 368.153L832.997 368.628C832.791 368.285 832.49 367.986 832.159 367.723C831.829 367.461 831.47 367.235 831.088 367.112L831.141 365.238L829.683 365.038L829.184 366.796C828.357 366.858 827.56 367.183 826.889 367.727L825.275 366.744L824.371 367.882L825.693 369.232C825.315 370.009 825.179 370.859 825.336 371.641L823.706 372.562Z" fill="#00DF66"/>
<path d="M656.332 466.681C655.126 467.794 653.206 467.716 652.093 466.511C651.521 465.89 651.253 465.117 651.317 464.356C651.384 462.7 654.524 458.846 654.524 458.846C654.524 458.846 657.345 462.94 657.279 464.596C657.281 465.359 656.952 466.109 656.332 466.681ZM653.304 464.436C653.294 464.701 653.384 464.937 653.574 465.144C653.956 465.557 654.552 465.581 654.965 465.2C655.172 465.009 655.281 464.781 655.291 464.516C655.307 464.119 654.38 462.423 654.38 462.423C654.38 462.423 653.32 464.039 653.304 464.436ZM648.848 475.436L646.819 473.928C646.27 473.541 645.966 472.865 645.993 472.203L646.222 466.507L651.176 468.696L657.071 468.933L662.185 467.149L661.988 472.88C661.961 473.542 661.571 474.157 660.994 474.498L658.85 475.838C658.49 484.781 653.408 486.6 653.408 486.6C653.408 486.6 648.488 484.378 648.848 475.436ZM658.128 470.701C658.358 471.573 658.583 472.577 658.71 473.544L659.969 472.765L660.081 469.983L658.128 470.701ZM648.092 469.501L647.98 472.283L649.172 473.16C649.376 472.207 649.681 471.224 649.98 470.373L648.092 469.501ZM650.87 475.484C650.603 482.108 653.504 484.215 653.504 484.215C653.504 484.215 656.565 482.348 656.831 475.724C656.906 473.869 656.334 471.591 656.095 470.918L651.989 470.752C651.729 471.439 650.944 473.63 650.87 475.484ZM652.42 475.713C653.212 474.981 654.537 475.035 655.268 475.827C655.999 476.619 655.946 477.944 655.153 478.675C654.361 479.406 653.036 479.353 652.305 478.561C651.574 477.768 651.627 476.444 652.42 475.713Z" fill="#00DF66"/>
<path d="M395.344 419.374L400.017 420.497L399.539 422.427L394.866 421.304L395.344 419.374ZM409.883 425.058L408.353 431.235L402.176 429.705L405.187 427.89L401.895 422.43L403.934 414.194L405.865 414.672L403.992 422.096L406.872 426.873L409.883 425.058Z" fill="#00DF66"/>
</g>
<path d="M65.6708 173.515C63.6903 177.914 60.5679 179.588 57.2711 178.024L58.7491 174.742C60.5152 175.379 62.0572 174.468 63.0623 172.235C64.0104 170.188 63.8542 168.723 62.5412 168.132C61.3594 167.6 60.3524 168.725 59.2436 170.253L58.3285 171.525C56.6307 173.893 54.5619 176.383 51.1699 174.856C48.5219 173.664 47.8332 170.458 49.6659 166.388C51.4396 162.449 54.5028 160.906 57.9244 162.368L56.4661 165.607C54.7077 164.894 53.1613 165.698 52.2942 167.624C51.4369 169.528 51.603 170.971 52.7628 171.494C54.0321 172.065 55.0687 170.874 56.1775 169.346L57.2152 167.918C58.8834 165.616 60.8077 163.272 63.9153 164.671C66.9571 166.04 67.5627 169.314 65.6708 173.515Z" fill="#00DF66"/>
<path d="M69.388 164.667L54.683 156.543L58.8612 148.981C60.4861 146.04 62.7917 145.092 65.1024 146.369C67.2032 147.53 67.838 149.855 66.9195 151.815L67.0665 151.896C68.2371 150.075 69.467 149.685 71.6274 150.44L76.3401 152.084L74.5179 155.382L70.8666 154.05C69.1634 153.411 68.5488 153.729 67.539 155.557L65.891 158.54L71.1638 161.453L69.388 164.667ZM63.6012 157.275L65.4466 153.935C66.2822 152.422 65.8824 150.913 64.4119 150.1C63.0464 149.346 61.6839 149.827 60.825 151.382L58.9796 154.722L63.6012 157.275Z" fill="#00DF66"/>
<path d="M77.5835 150.159L63.5678 140.896L70.6207 130.224L73.0234 131.812L67.9951 139.42L71.2187 141.551L75.731 134.723L78.0736 136.271L73.5613 143.099L77.2054 145.507L82.2205 137.919L84.6232 139.507L77.5835 150.159Z" fill="#00DF66"/>
<path d="M43 267.5C39.3617 239.234 39.6661 222.909 49 192" stroke="#333333"/>
</g>
<defs>
<clipPath id="clip0_4380_5179">
<rect width="900.02" height="517.98" fill="white"/>
</clipPath>
</defs>
</svg>
